<?xml version="1.0" encoding="UTF-8"?>
<svg width="100px" height="100px" viewBox="0 0 100 100" version="1.1" xmlns="http://www.w3.org/2000/svg" xmlns:xlink="http://www.w3.org/1999/xlink">
    <title>0BA0A6CF-248E-4E17-84A0-90D13562894A</title>
    <g id="Soulotion" stroke="none" stroke-width="1" fill="none" fill-rule="evenodd">
        <g id="Solution-Page---English-DIGITAL-&amp;-COMMERCE" transform="translate(-1146.000000, -663.000000)">
            <g id="Soulotions" transform="translate(403.000000, 663.000000)">
                <g id="Microsoft-Azure" transform="translate(705.000000, 0.000000)">
                    <g id="Asset-9" transform="translate(38.000000, 0.000000)">
                        <rect id="Rectangle" x="0" y="0" width="100" height="100"></rect>
                        <path d="M54.43,28.39 L54.37,28.39 L54.37,24.54 L55.84,23.06 L52.84,20 L49.84,23.06 L46.84,20 L43.84,23.06 L49.84,29.17 L54,24.89 L54,28.39 L53.92,28.39 C53.8095431,28.39 53.72,28.4795431 53.72,28.59 L53.72,29.07 C53.72,29.1804569 53.8095431,29.27 53.92,29.27 L54.41,29.27 C54.5204569,29.27 54.61,29.1804569 54.61,29.07 L54.61,28.59 C54.6105166,28.4869044 54.5325803,28.4003084 54.43,28.39 Z" id="Path" stroke="#EB008B" stroke-linecap="round" stroke-linejoin="round"></path>
                        <path d="M54.35,31.62 C54.2687539,31.7841734 54.2341623,31.9675089 54.25,32.15 C54.25,32.15 54.25,32.49 54.25,32.89 L54.1,32.89 C53.8284251,32.8915443 53.5572836,32.8681124 53.29,32.82 L53.74,31.62 L54.35,31.62 M55.26,30.4 C55.0840607,30.5411606 54.8655642,30.6186916 54.64,30.62 L53.72,30.62 C53.5024824,30.6171243 53.2918349,30.5433977 53.12,30.41 L52.24,32.78 C52.1651626,32.9559635 52.1655667,33.1548825 52.2411185,33.3305404 C52.3166703,33.5061984 52.4607925,33.6433031 52.64,33.71 C53.1170139,33.8319381 53.6076533,33.8924278 54.1,33.89 C54.3396165,33.909188 54.5803835,33.909188 54.82,33.89 C55.2,33.84 55.28,33.57 55.29,33.24 C55.29,32.68 55.29,32.11 55.29,32.11 C55.4814255,32.6350446 55.6351491,33.173077 55.75,33.72 C56.0973224,33.5648681 56.2571883,33.1607625 56.11,32.81 L55.31,30.45 L55.26,30.4 Z" id="Shape" fill="#EB008B" fill-rule="nonzero"></path>
                        <polyline id="Path" stroke="#666666" stroke-width="2" stroke-linecap="round" stroke-linejoin="round" points="69.9 55.88 69.9 13.38 30.67 13.38 30.67 55.75"></polyline>
                        <line x1="37.4" y1="37.13" x2="63.15" y2="37.13" id="Path" stroke="#666666" stroke-linecap="round" stroke-linejoin="round"></line>
                        <line x1="37.4" y1="41.88" x2="63.15" y2="41.88" id="Path" stroke="#666666" stroke-linecap="round" stroke-linejoin="round"></line>
                        <polyline id="Path" stroke="#666666" stroke-width="2" stroke-linecap="round" stroke-linejoin="round" points="29.63 72.54 13.16 64.86 50.41 46 87.66 64.86 70.64 72.76"></polyline>
                        <path d="M70.24,70.1 C69.85,66.81 61.13,64.17 50.41,64.17 C39.69,64.17 31,66.81 30.58,70.1 L30.58,70.1 L30.58,84.85 C32.6728446,84.2832575 34.8317775,83.9974174 37,84 C43.55,84 49,86.35 50.26,89.48 L50.66,89.48 C51.86,86.38 57.32,84 63.87,84 C66.0301904,83.9894054 68.1822585,84.2651392 70.27,84.82 L70.27,70.1 L70.24,70.1 Z" id="Path" stroke="#666666" stroke-width="2" stroke-linecap="round" stroke-linejoin="round"></path>
                        <line x1="87.47" y1="64.73" x2="87.47" y2="77.23" id="Path" stroke="#666666" stroke-width="2" stroke-linecap="round" stroke-linejoin="round"></line>
                        <path d="M87.47,77.23 L87.47,77.23 C89.1986513,77.23 90.6,78.6313487 90.6,80.36 L90.6,87.86 L84.34,87.86 L84.34,80.36 C84.34,78.6313487 85.7413487,77.23 87.47,77.23 L87.47,77.23 Z" id="Path" stroke="#666666" stroke-width="2" stroke-linecap="round" stroke-linejoin="round"></path>
                    </g>
                </g>
            </g>
        </g>
    </g>
</svg>