<?xml version="1.0" encoding="UTF-8"?>
<svg width="77px" height="71px" viewBox="0 0 77 71" version="1.1" xmlns="http://www.w3.org/2000/svg" xmlns:xlink="http://www.w3.org/1999/xlink">
    <title>7DEC7EB0-5586-47D2-A490-4D9FE240BB0E</title>
    <g id="Soulotion" stroke="none" stroke-width="1" fill="none" fill-rule="evenodd">
        <g id="Solution-Page---English-CRM" transform="translate(-1040.000000, -1136.000000)" stroke-width="2">
            <g id="Soulotions" transform="translate(403.000000, 933.000000)">
                <g id="Row-2" transform="translate(352.000000, 189.000000)">
                    <g id="Sales-Force-Automation-Copy-2" transform="translate(235.000000, 0.000000)">
                        <g id="Icon-/-Sales-Force-Automation" transform="translate(38.000000, 0.000000)">
                            <g id="Asset-4" transform="translate(13.000000, 15.000000)">
                                <path d="M0,8.25 L0,43.58 C0,48.0920582 3.62827404,51.765242 8.14,51.82 L66.14,51.31 C70.74,51.37 74.62,48.93 74.62,44.31 L74.62,8.25 C74.62,3.70922618 70.9507204,0.0220158727 66.41,0 L8.25,0 C3.69365081,0 0,3.69365081 0,8.25 Z" id="Path" stroke="#666666"></path>
                                <line x1="0" y1="11.15" x2="74.58" y2="11.15" id="Path" stroke="#666666"></line>
                                <line x1="0" y1="43.01" x2="74.58" y2="43.01" id="Path" stroke="#666666"></line>
                                <line x1="18.8" y1="29.47" x2="32.42" y2="21.65" id="Path" stroke="#666666"></line>
                                <line x1="49.18" y1="31.89" x2="58.94" y2="26.29" id="Path" stroke="#666666"></line>
                                <circle id="Oval" stroke="#666666" cx="15.91" cy="31.31" r="4.31"></circle>
                                <circle id="Oval" stroke="#666666" cx="46.07" cy="34" r="3.1"></circle>
                                <circle id="Oval" stroke="#02AEEE" cx="61.41" cy="24.76" r="2.81"></circle>
                                <line x1="36.68" y1="23.07" x2="43.98" y2="32.38" id="Path" stroke="#666666"></line>
                                <line x1="29.42" y1="51.82" x2="27.05" y2="60.16" id="Path" stroke="#666666"></line>
                                <rect id="Rectangle" stroke="#666666" x="19.3" y="60.65" width="36.64" height="7.51" rx="1.66"></rect>
                                <circle id="Oval" stroke="#02AEEE" cx="34.92" cy="20.51" r="3.1"></circle>
                                <line x1="44.74" y1="51.5" x2="47.08" y2="60.42" id="Path" stroke="#666666"></line>
                            </g>
                        </g>
                    </g>
                </g>
            </g>
        </g>
    </g>
</svg>