<?xml version="1.0" encoding="UTF-8"?>
<svg width="67px" height="75px" viewBox="0 0 67 75" version="1.1" xmlns="http://www.w3.org/2000/svg" xmlns:xlink="http://www.w3.org/1999/xlink">
    <title>0331A92E-7DD8-4411-97A7-D0F926344672</title>
    <g id="Soulotion" stroke="none" stroke-width="1" fill="none" fill-rule="evenodd">
        <g id="Solution-Page---English-CRM" transform="translate(-458.000000, -945.000000)">
            <g id="Soulotions" transform="translate(403.000000, 933.000000)">
                <g id="Icon-/-Contact-Centers" transform="translate(38.000000, 0.000000)">
                    <g id="Asset-16" transform="translate(18.000000, 13.000000)">
                        <path d="M52.1,31.87 L52.1,41.6 C52.1,41.6 52.22,49.03 54.56,52.11" id="Path" stroke="#666666" stroke-width="2"></path>
                        <path d="M9.7,53.2 L9.7,21.2 C9.7,9.4915633 19.1915633,3.55271368e-15 30.9,3.55271368e-15 L30.9,3.55271368e-15 C36.5225896,3.55271368e-15 41.9148925,2.23356502 45.8906638,6.20933624 C49.866435,10.1851075 52.1,15.5774104 52.1,21.2 L52.1,32.55" id="Path" stroke="#666666" stroke-width="2"></path>
                        <path d="M22.53,52 C24.8586398,54.3179635 28.0143738,55.6133617 31.3,55.6001024 L31.3,55.6001024 C37.7694801,55.5941377 43.1491168,50.6192795 43.66,44.17" id="Path" stroke="#666666" stroke-width="2" stroke-linecap="round"></path>
                        <path d="M19.89,35.6 C21.6489195,41.3047986 26.9201994,45.1974361 32.89,45.2000037 L32.89,45.2000037 C36.4986766,45.2026534 39.9604594,43.7709719 42.5131173,41.2201895 C45.0657753,38.6694071 46.5,35.2086775 46.5,31.6 L46.5,24.6" id="Path" stroke="#666666" stroke-width="2" stroke-linecap="round" stroke-linejoin="round"></path>
                        <path d="M16.1,32.8 C16.1,32.8 15.3,36 18.5,36 C21.7,36 22.5,30.87 23.3,24.63 C24.1,18.39 28.49,13 34.9,13 L34.9,13 C41.3042178,13.0055138 46.4944862,18.1957822 46.5,24.6 L46.5,31.6" id="Path" stroke="#666666" stroke-width="2" stroke-linecap="round" stroke-linejoin="round"></path>
                        <rect id="Rectangle" stroke="#FAB062" stroke-width="2" x="28.9" y="34.4" width="9.6" height="7.2" rx="3.46"></rect>
                        <path d="M57.09,22.14 L57.09,22 C57.09,21.78 56.23,17.06 52.87,16.1 C53.0642584,16.923769 53.2078608,17.7586665 53.3,18.6 C54.2257477,19.6399252 54.8513881,20.9119455 55.11,22.28 C55.78,33.98 38.26,37.14 38.11,37.17 L38.45,39.17 C41.7628485,38.5185466 44.9675829,37.4042955 47.97,35.86 C54.28,32.55 57.45,27.79 57.09,22.14 Z" id="Path" fill="#FAB062" fill-rule="nonzero"></path>
                        <path d="M42,42.93 L57.7,54.4 C60.7846969,56.7140493 62.8040721,60.1758354 63.3,64 L64.1,72.8 L0.1,72.8 L0.9,64 C1.3959279,60.1758354 3.41530314,56.7140493 6.5,54.4 L9.16,52.46" id="Path" stroke="#666666" stroke-width="2"></path>
                        <path d="M22.5,42.4 L22.5,62 C22.4890199,65.5300643 19.6300643,68.3890199 16.1,68.4 L16.1,68.4 C12.5699357,68.3890199 9.71098006,65.5300643 9.7,62 L9.7,50.13" id="Path" stroke="#666666" stroke-width="2" stroke-linecap="round" stroke-linejoin="round"></path>
                    </g>
                </g>
            </g>
        </g>
    </g>
</svg>