<?xml version="1.0" encoding="UTF-8"?>
<svg width="89px" height="66px" viewBox="0 0 89 66" version="1.1" xmlns="http://www.w3.org/2000/svg" xmlns:xlink="http://www.w3.org/1999/xlink">
    <title>5B235A18-53FC-4038-9426-05ECC84D3CEA</title>
    <g id="Soulotion" stroke="none" stroke-width="1" fill="none" fill-rule="evenodd">
        <g id="Solution-Page---English-DATA" transform="translate(-917.000000, -680.000000)">
            <g id="Soulotions" transform="translate(403.000000, 663.000000)">
                <g id="PEGA" transform="translate(470.000000, 0.000000)">
                    <g id="Icon-/-PEGA" transform="translate(38.000000, 0.000000)">
                        <g id="Asset-12" transform="translate(7.000000, 18.000000)">
                            <rect id="Rectangle" stroke="#666666" stroke-width="2" x="4.6" y="0" width="78" height="58" rx="3.89"></rect>
                            <path d="M75.18,6 C75.961976,6.00544951 76.5945505,6.63802404 76.6,7.42 L76.6,50.57 C76.6,51.3558784 75.9658592,51.9945043 75.18,52 L12,52 C11.2102328,52 10.57,51.3597672 10.57,50.57 L10.57,7.42 C10.5754957,6.63414084 11.2141216,6 12,6 L75.18,6 M75.18,4 L12,4 C10.1212808,4.0164248 8.60540573,5.54121682 8.6,7.42 L8.6,50.57 C8.6,52.4526825 10.1173895,53.9835334 12,54 L75.18,54 C76.0887757,54 76.960185,53.6383111 77.6018476,52.9947722 C78.2435103,52.3512334 78.6026572,51.4787718 78.6000146,50.57 L78.6000146,7.42 C78.6000146,5.53118616 77.0688138,4 75.18,4 Z" id="Shape" fill="#666666" fill-rule="nonzero"></path>
                            <line x1="18.6" y1="45" x2="68.6" y2="45" id="Path" stroke="#666666" stroke-width="2" stroke-linecap="round"></line>
                            <line x1="18.6" y1="41" x2="68.6" y2="41" id="Path" stroke="#666666" stroke-width="2" stroke-linecap="round"></line>
                            <line x1="18.6" y1="37" x2="42.6" y2="37" id="Path" stroke="#666666" stroke-width="2" stroke-linecap="round"></line>
                            <line x1="19.52" y1="28.02" x2="19.52" y2="20.62" id="Path" stroke="#666666" stroke-width="2" stroke-linecap="round"></line>
                            <line x1="26.69" y1="28.02" x2="26.69" y2="13.92" id="Path" stroke="#3BD154" stroke-width="2" stroke-linecap="round" stroke-linejoin="round"></line>
                            <line x1="33.85" y1="28.02" x2="33.85" y2="23.47" id="Path" stroke="#666666" stroke-width="2" stroke-linecap="round"></line>
                            <line x1="41.02" y1="28.02" x2="41.02" y2="17.88" id="Path" stroke="#666666" stroke-width="2" stroke-linecap="round"></line>
                            <path d="M50,22.67 L50,22.67 C50,27.5356286 53.9443714,31.48 58.81,31.48 C63.6756286,31.48 67.62,27.5356286 67.62,22.67 C67.62,17.8043714 63.6756286,13.86 58.81,13.86" id="Path" stroke="#666666" stroke-width="2" stroke-linecap="round"></path>
                            <path d="M58.84,13.9 L58.84,22.67 L50,22.67 C50.0079383,20.3343511 50.9440786,18.0976686 52.6021931,16.4526839 C54.2603077,14.8076991 56.5043618,13.8893699 58.84,13.9 Z" id="Path" stroke="#3BD154" stroke-width="2" stroke-linecap="round"></path>
                            <path d="M0,58 L86.6,58 L86.6,61.14 C86.6,62.7195344 85.3195344,64 83.74,64 L2.84,64 C1.26828168,63.9890087 0,62.7117567 0,61.14 L0,58 Z" id="Path" stroke="#666666" stroke-width="1.95" stroke-linecap="round" stroke-linejoin="round"></path>
                        </g>
                    </g>
                </g>
            </g>
        </g>
    </g>
</svg>