<?xml version="1.0" encoding="UTF-8"?>
<svg width="100px" height="100px" viewBox="0 0 100 100" version="1.1" xmlns="http://www.w3.org/2000/svg" xmlns:xlink="http://www.w3.org/1999/xlink">
    <title>4FB2E491-971C-4759-BDC1-E910E0DC8427</title>
    <g id="Soulotion" stroke="none" stroke-width="1" fill="none" fill-rule="evenodd">
        <g id="Solution-Page---English-DIGITAL-&amp;-COMMERCE" transform="translate(-911.000000, -663.000000)">
            <g id="Soulotions" transform="translate(403.000000, 663.000000)">
                <g id="PEGA" transform="translate(470.000000, 0.000000)">
                    <g id="Asset-18" transform="translate(38.000000, 0.000000)">
                        <rect id="Rectangle" x="0" y="0" width="100" height="100"></rect>
                        <rect id="Rectangle" stroke="#666666" stroke-width="2" x="12.96" y="28.06" width="74.07" height="50.47" rx="3.7"></rect>
                        <path d="M80,33.86 C80.6903559,33.86 81.25,34.4196441 81.25,35.11 L81.25,71.48 C81.25,72.1703559 80.6903559,72.73 80,72.73 L20,72.73 C19.3096441,72.73 18.75,72.1703559 18.75,71.48 L18.75,35.11 C18.75,34.4196441 19.3096441,33.86 20,33.86 L80,33.86 M80,31.86 L20,31.86 C18.2050746,31.86 16.75,33.3150746 16.75,35.11 L16.75,71.48 C16.7554905,73.2726463 18.2073537,74.7245095 20,74.73 L80,74.73 C81.7926463,74.7245095 83.2445095,73.2726463 83.25,71.48 L83.25,35.11 C83.25,33.3150746 81.7949254,31.86 80,31.86 Z" id="Shape" fill="#666666" fill-rule="nonzero"></path>
                        <rect id="Rectangle" fill="#FFFFFF" fill-rule="nonzero" x="27.22" y="26.08" width="35.83" height="10"></rect>
                        <path d="M67.43,68.52 L63,27.91 C62.7761409,26.1318541 61.2520182,24.8057812 59.46,24.83 L30.58,24.83 C28.7609112,24.781927 27.2067408,26.1320583 27,27.94 L22.52,73.08" id="Path" stroke="#666666" stroke-width="1.88" stroke-linecap="round" stroke-linejoin="round"></path>
                        <path d="M37.21,31.51 L37.21,22 C37.21,17.581722 40.791722,14 45.21,14 L45.21,14 C49.6146751,14.0326689 53.1773311,17.5953249 53.21,22 L53.21,31.48" id="Path" stroke="#666666" stroke-width="2" stroke-linecap="round" stroke-linejoin="round"></path>
                        <polygon id="Path" fill="#FFFFFF" fill-rule="nonzero" points="74 70.37 56 70.37 56 39.66 69 39.66"></polygon>
                        <path d="M79,73.37 L75,42.22 C74.8608906,40.9435127 73.7739205,39.9821288 72.49,39.9997549 L52.14,39.9997549 C50.8598895,39.9873173 49.7787511,40.9473681 49.64,42.22 L46,73.37" id="Path" stroke="#EB008B" stroke-width="2"></path>
                        <path d="M67.29,45.64 L67.29,51 C67.2845008,53.4553857 65.2953857,55.4445008 62.84,55.45 L62.84,55.45 C60.3868835,55.4390484 58.4009516,53.4531165 58.39,51 L58.39,45.64" id="Path" stroke="#EB008B" stroke-width="2.23" stroke-linecap="round" stroke-linejoin="round"></path>
                        <path d="M8.87,78.53 L91.13,78.53 L91.13,81.53 C91.13,83.0322145 89.9122145,84.25 88.41,84.25 L11.59,84.25 C10.0877855,84.25 8.87,83.0322145 8.87,81.53 L8.87,78.53 Z" id="Path" stroke="#666666" stroke-width="2.34" stroke-linecap="round" stroke-linejoin="round"></path>
                    </g>
                </g>
            </g>
        </g>
    </g>
</svg>