<?xml version="1.0" encoding="UTF-8"?>
<svg width="88px" height="79px" viewBox="0 0 88 79" version="1.1" xmlns="http://www.w3.org/2000/svg" xmlns:xlink="http://www.w3.org/1999/xlink">
    <title>53588F51-3632-4613-B183-475B66F9FDBE</title>
    <g id="Soulotion" stroke="none" stroke-width="1" fill="none" fill-rule="evenodd">
        <g id="Solution-Page---English-DIGITAL-&amp;-COMMERCE" transform="translate(-682.000000, -887.000000)" stroke-width="2">
            <g id="Soulotions" transform="translate(403.000000, 663.000000)">
                <g id="Row-2" transform="translate(235.000000, 214.000000)">
                    <g id="Icon-/-UXUI" transform="translate(38.000000, 0.000000)">
                        <g id="Asset-10" transform="translate(7.000000, 11.000000)">
                            <line x1="64.32" y1="11.54" x2="74.54" y2="28.73" id="Path" stroke="#EB008B" stroke-linecap="round"></line>
                            <circle id="Oval" stroke="#EB008B" cx="61.83" cy="7.1" r="5.09"></circle>
                            <circle id="Oval" stroke="#666666" cx="80.91" cy="38.92" r="5.09"></circle>
                            <line x1="78.42" y1="43.35" x2="68.2" y2="60.54" id="Path" stroke="#666666" stroke-linecap="round"></line>
                            <circle id="Oval" stroke="#EB008B" cx="61.97" cy="71.58" r="5.09"></circle>
                            <line x1="57" y1="71.34" x2="37" y2="71.34" id="Path" stroke="#EB008B" stroke-linecap="round"></line>
                            <circle id="Oval" stroke="#666666" cx="24.17" cy="69.57" r="5.09"></circle>
                            <line x1="21.68" y1="65.13" x2="11.46" y2="47.94" id="Path" stroke="#666666" stroke-linecap="round"></line>
                            <circle id="Oval" stroke="#EB008B" cx="5.09" cy="37.76" r="5.09"></circle>
                            <line x1="7.58" y1="33.32" x2="17.8" y2="16.13" id="Path" stroke="#EB008B" stroke-linecap="round"></line>
                            <circle id="Oval" stroke="#666666" cx="24.03" cy="5.09" r="5.09"></circle>
                            <line x1="29" y1="5.34" x2="49" y2="5.34" id="Path" stroke="#666666" stroke-linecap="round"></line>
                            <circle id="Oval" stroke="#666666" cx="43" cy="38.34" r="20.47"></circle>
                            <ellipse id="Oval" stroke="#666666" cx="43" cy="38.34" rx="10.92" ry="19.11"></ellipse>
                            <line x1="23.89" y1="30.15" x2="62.11" y2="30.15" id="Path" stroke="#666666"></line>
                            <line x1="43" y1="19.23" x2="43" y2="57.44" id="Path" stroke="#666666"></line>
                            <line x1="24.26" y1="46.53" x2="61.74" y2="46.53" id="Path" stroke="#666666"></line>
                            <line x1="22.89" y1="38.34" x2="63.11" y2="38.34" id="Path" stroke="#666666"></line>
                        </g>
                    </g>
                </g>
            </g>
        </g>
    </g>
</svg>