<?xml version="1.0" encoding="UTF-8"?>
<svg width="51px" height="81px" viewBox="0 0 51 81" version="1.1" xmlns="http://www.w3.org/2000/svg" xmlns:xlink="http://www.w3.org/1999/xlink">
    <title>5490753F-AC10-44EB-9544-291A90AA366C</title>
    <g id="Soulotion" stroke="none" stroke-width="1" fill="none" fill-rule="evenodd">
        <g id="Solution-Page---English-DIGITAL-&amp;-COMMERCE" transform="translate(-1170.000000, -886.000000)">
            <g id="Soulotions" transform="translate(403.000000, 663.000000)">
                <g id="Row-2" transform="translate(235.000000, 214.000000)">
                    <g id="Field-Service" transform="translate(470.000000, 0.000000)">
                        <g id="Icon-/-Field-Service" transform="translate(37.000000, 0.000000)">
                            <g id="Asset-20" transform="translate(26.000000, 10.000000)">
                                <rect id="Rectangle" stroke="#666666" stroke-width="2" x="0" y="0" width="48.49" height="78.67" rx="3.89"></rect>
                                <path d="M40.88,9.5 C41.2274336,9.5 41.5606372,9.63801746 41.8063099,9.88369012 C42.0519825,10.1293628 42.19,10.4625664 42.19,10.81 L42.19,62.36 C42.19,62.7074336 42.0519825,63.0406372 41.8063099,63.2863099 C41.5606372,63.5319825 41.2274336,63.67 40.88,63.67 L7.61,63.67 C6.89041526,63.6645068 6.31,63.0796057 6.31,62.36 L6.31,10.81 C6.31,10.0903943 6.89041526,9.50549317 7.61,9.5 L40.88,9.5 M40.88,7.5 L7.61,7.5 C5.78584394,7.50551107 4.31,8.98583561 4.31,10.81 L4.31,62.36 C4.31,64.1841644 5.78584394,65.6644889 7.61,65.67 L40.88,65.67 C42.7080625,65.67 44.19,64.1880625 44.19,62.36 L44.19,10.81 C44.19,8.98193748 42.7080625,7.5 40.88,7.5 Z" id="Shape" fill="#666666" fill-rule="nonzero"></path>
                                <line x1="19.08" y1="4.33" x2="29.41" y2="4.33" id="Path" stroke="#666666" stroke-width="2"></line>
                                <circle id="Oval" stroke="#666666" stroke-width="2" stroke-linecap="round" stroke-linejoin="round" cx="24.25" cy="71.71" r="3.29"></circle>
                                <path d="M18.33,21.61 L17.07,22.79 C16.3980744,23.4259627 16.3667804,24.4854887 17,25.16 L17.74,25.94 C17.2049584,26.7798729 16.7940484,27.692632 16.52,28.65 L15.45,28.65 C15.0046535,28.6371229 14.5726249,28.8027339 14.25,29.11 C13.92625,29.4141099 13.7387852,29.8359057 13.73,30.28 L13.68,32 C13.6631589,32.9147561 14.3854944,33.6727625 15.3,33.7 L16.89,33.7 C17.2153476,33.659411 17.4595326,33.3828697 17.4595326,33.055 C17.4595326,32.7271303 17.2153476,32.450589 16.89,32.41 L15.3,32.41 C15.1124918,32.3661411 14.9850636,32.1919892 15,32 L15,30.28 C15.0084712,30.1790591 15.0507514,30.0839287 15.12,30.01 C15.197018,29.9419289 15.2972849,29.9061193 15.4,29.91 L17,30 C17.307731,30.0082827 17.5790709,29.7995597 17.65,29.5 C17.9051722,28.3475424 18.3916648,27.2588879 19.08,26.3 C19.2741589,26.0611463 19.2741589,25.7188537 19.08,25.48 L17.99,24.32 C17.9179379,24.2486332 17.8773948,24.1514208 17.8773948,24.05 C17.8773948,23.9485792 17.9179379,23.8513668 17.99,23.78 L19.25,22.59 C19.3233987,22.5225409 19.4203671,22.4866267 19.52,22.49 C19.6230248,22.4895225 19.7213172,22.5332081 19.79,22.61 L20.88,23.76 C21.0863388,23.9906285 21.4296285,24.0372481 21.69,23.87 C22.6947704,23.2186524 23.8205217,22.7765144 25,22.57 C25.300553,22.5110521 25.5228696,22.2557998 25.54,21.95 L25.54,20.36 C25.5425569,20.2574015 25.5865052,20.1601996 25.6618461,20.0905093 C25.737187,20.0208189 25.8375135,19.9845665 25.94,19.99 L27.67,20.04 C27.7730248,20.0395225 27.8713172,20.0832081 27.94,20.16 C28.0074591,20.2333987 28.0433733,20.3303671 28.04,20.43 L28,22 C27.9917173,22.307731 28.2004403,22.5790709 28.5,22.65 C29.6523488,22.9108243 30.7405488,23.4005143 31.7,24.09 C31.9505557,24.2700699 32.293179,24.2491782 32.52,24.04 L33.67,23 C33.7404616,22.9268999 33.8385151,22.8869522 33.94,22.89 C34.0420165,22.8940761 34.1386129,22.9370078 34.21,23.01 L35.4,24.27 C35.4689983,24.3464673 35.504947,24.4471237 35.5,24.55 C35.4992298,24.6527591 35.4557586,24.7505691 35.38,24.82 L34.22,25.91 C34.0001878,26.122816 33.958546,26.4601141 34.12,26.72 C34.7527039,27.7182971 35.1778262,28.8338179 35.37,30 C35.4289479,30.300553 35.6842002,30.5228696 35.99,30.54 L37.58,30.54 C37.7042266,30.5187142 37.8307444,30.562129 37.9157273,30.6552055 C38.0007102,30.7482821 38.0324681,30.8782168 38,31 L37.95,32.73 C37.9445758,32.9414759 37.7715455,33.1100696 37.56,33.11 L35.92,33 C35.612269,32.9917173 35.3409291,33.2004403 35.27,33.5 C35.0094037,34.6555013 34.5197518,35.747017 33.83,36.71 C33.6499301,36.9605557 33.6708218,37.303179 33.88,37.53 L35,38.69 C35.0708201,38.7660241 35.1101358,38.8661004 35.11,38.97 C35.1015288,39.0709409 35.0592486,39.1660713 34.99,39.24 L33.7,40.42 C33.6251332,40.4926367 33.5242883,40.5322544 33.42,40.53 C33.3190591,40.5215288 33.2239287,40.4792486 33.15,40.41 L32.06,39.25 C31.8169947,38.9904262 31.4095738,38.9769947 31.15,39.22 C30.8904262,39.4630053 30.8769947,39.8704262 31.12,40.13 L32.21,41.29 C32.5167054,41.6100754 32.936894,41.7968259 33.38,41.81 C33.601311,41.8232342 33.8229009,41.7891434 34.03,41.71 C34.2334224,41.6283932 34.4199185,41.5097139 34.58,41.36 L35.84,40.17 C36.16375,39.8658901 36.3512148,39.4440943 36.36,39 C36.3707328,38.5598605 36.20928,38.1329077 35.91,37.81 L35.17,37 C35.7070441,36.1576306 36.1180566,35.2412748 36.39,34.28 L37.46,34.28 C38.3820287,34.296946 39.1474154,33.5716086 39.18,32.65 L39.18,30.92 C39.19617,30.4762973 39.0339179,30.044609 38.7295006,29.7214006 C38.4250834,29.3981921 38.0038754,29.2104042 37.56,29.2 L36.48,29.2 C36.2691668,28.225096 35.911774,27.2877826 35.42,26.42 L36.21,25.68 C36.8778885,25.0447055 36.9047435,23.9884122 36.27,23.32 L35.14,22.1 C34.8416843,21.7841534 34.4337635,21.594506 34,21.57 C33.5546535,21.5571229 33.1226249,21.7227339 32.8,22.03 L32.02,22.77 C31.1848655,22.2328191 30.2750788,21.8217303 29.32,21.55 L29.32,20.47 C29.3324279,20.0277007 29.1666896,19.5989429 28.86,19.28 C28.5543151,18.9571286 28.1343026,18.7668665 27.69,18.75 L26,18.7 C25.0758602,18.6775888 24.3072405,19.4059899 24.28,20.33 L24.28,21.4 C23.3069165,21.6169287 22.3704827,21.9739862 21.5,22.46 L20.77,21.68 C20.4643151,21.3571286 20.0443026,21.1668665 19.6,21.15 C19.1544626,21.1359969 18.7220142,21.3017688 18.4,21.61 L18.33,21.61 Z" id="Path" stroke="#02AEEE" stroke-width="0.6" fill="#02AEEE" fill-rule="nonzero"></path>
                                <path d="M31.35,29.58 C30.2986958,26.8972609 27.2846747,25.5596775 24.59,26.58 L24.59,26.58 C23.2877722,27.0805204 22.2389008,28.0796731 21.6757803,29.3560795 C21.1126598,30.6324859 21.0817862,32.0807553 21.59,33.38 C21.6504331,33.5395718 21.7720855,33.6684043 21.9279336,33.7378787 C22.0837816,33.8073532 22.2609202,33.8117167 22.42,33.75 L22.42,33.75 C22.7537356,33.6197987 22.9192134,33.2441193 22.79,32.91 C22.4199573,31.9401 22.4414727,30.8643286 22.85,29.91 C23.2567114,28.9458669 24.0302474,28.1831244 25,27.79 L25,27.79 C26.9496963,27.3229922 28.9439442,28.3714695 29.6644894,30.2423588 C30.3850346,32.1132481 29.6092709,34.2285542 27.85,35.19 C27.6356406,35.2721711 27.4814022,35.4624597 27.4453847,35.6891858 C27.4093673,35.915912 27.4970428,36.1446307 27.6753847,36.2891859 C27.8537267,36.433741 28.0956406,36.4721711 28.31,36.39 L28.31,36.39 C29.6105018,35.8872837 30.6576148,34.8878926 31.220404,33.6122371 C31.7831932,32.3365816 31.8154283,30.8894502 31.31,29.59 L31.35,29.58 Z" id="Path" stroke="#02AEEE" stroke-width="0.7" fill="#02AEEE" fill-rule="nonzero"></path>
                                <path d="M23.19,53.53 L24.36,53.09 C24.7078056,52.9578695 24.9887115,52.6927288 25.1406885,52.3531258 C25.2926655,52.0135228 25.3032123,51.6273927 25.17,51.28 L24.94,50.68 C25.4662061,50.3003151 25.9402607,49.8531572 26.35,49.35 L26.94,49.61 C27.2828128,49.7505876 27.6671872,49.7505876 28.01,49.61 C28.3525988,49.4720262 28.6285273,49.2068482 28.78,48.87 L29.29,47.72 C29.430013,47.3805372 29.430013,46.9994628 29.29,46.66 C29.1551045,46.3130568 28.8893681,46.0329563 28.55,45.88 L28,45.66 C28.1099903,45.0192571 28.1301844,44.3663153 28.06,43.72 L28.66,43.49 C29.0070866,43.3599827 29.2878729,43.0967307 29.4399702,42.7587366 C29.5920676,42.4207425 29.6028782,42.0360015 29.47,41.69 L29,40.51 C28.8680141,40.1647315 28.6039421,39.8862528 28.2661647,39.7361295 C27.9283873,39.5860062 27.5447259,39.5766035 27.2,39.71 L26.6,39.94 C26.2203151,39.4137939 25.7731572,38.9397393 25.27,38.53 L25.53,37.94 C25.6750405,37.5980787 25.6750405,37.2119213 25.53,36.87 C25.4019566,36.5244586 25.1382262,36.2462772 24.8,36.1 L23.65,35.58 C23.3105372,35.439987 22.9294628,35.439987 22.59,35.58 C22.2387527,35.7080246 21.9563213,35.9759723 21.81,36.32 L21.55,36.91 C20.9092571,36.8000097 20.2563153,36.7798156 19.61,36.85 L19.38,36.24 C19.1047702,35.5210116 18.300653,35.1591589 17.58,35.43 L16.4,35.88 C15.6796922,36.1595024 15.3184855,36.9666434 15.59,37.69 L15.82,38.29 C15.2969477,38.6699243 14.8262306,39.1171055 14.42,39.62 L13.83,39.36 C13.4869773,39.2204816 13.1030227,39.2204816 12.76,39.36 C12.4355073,39.4707173 12.1643239,39.6990823 12,40 L11.48,41.14 C11.1691145,41.8443566 11.4807143,42.6678704 12.18,42.99 L12.77,43.25 C12.6700295,43.8917138 12.6498763,44.5433348 12.71,45.19 L12.11,45.42 C11.3910116,45.6952298 11.0291589,46.499347 11.3,47.22 L11.75,48.4 C11.8819859,48.7452685 12.1460579,49.0237472 12.4838353,49.1738705 C12.8216127,49.3239938 13.2052741,49.3333965 13.55,49.2 L14.2,49 C14.5768896,49.5285095 15.0243802,50.0029168 15.53,50.41 L15.26,51 C15.1134794,51.3420599 15.1091672,51.7283788 15.2480158,52.0736241 C15.3868645,52.4188694 15.6574486,52.6946321 16,52.84 L17.14,53.36 C17.4830227,53.4995184 17.8669773,53.4995184 18.21,53.36 C18.5601239,53.2338997 18.8400925,52.964839 18.98,52.62 L19.25,52.03 C19.8873943,52.1398376 20.5370139,52.160033 21.18,52.09 L21.41,52.7 C21.6934589,53.416369 22.4994283,53.7725986 23.22,53.5 L23.19,53.53 Z M19,50.71 C18.8757564,50.6749613 18.7442436,50.6749613 18.62,50.71 C18.4586233,50.7694463 18.3285634,50.8922807 18.26,51.05 L17.79,52.05 C17.7821555,52.0759508 17.7641108,52.0976045 17.74,52.11 C17.7152479,52.1242906 17.6847521,52.1242906 17.66,52.11 L16.51,51.6 C16.460934,51.5773054 16.4387876,51.5197248 16.46,51.47 L16.93,50.41 C17.0571673,50.1280996 16.9645707,49.7955936 16.71,49.62 C16.0282574,49.1401905 15.4501019,48.5280258 15.01,47.82 C14.8452932,47.5584661 14.5211472,47.4462616 14.23,47.55 L13.14,48 C13.08,48 13.03,48 13,47.94 L12.56,46.77 C12.5469623,46.7437412 12.5461042,46.7130838 12.5576529,46.686137 C12.5692016,46.6591901 12.5919935,46.6386684 12.62,46.63 L13.7,46.22 C13.9862501,46.1097701 14.1540402,45.8119428 14.1,45.51 C13.9554904,44.6770532 13.979292,43.8235981 14.17,43 C14.2443898,42.7014016 14.0921807,42.3927554 13.81,42.27 L12.76,41.79 C12.7422736,41.7730237 12.7322495,41.7495442 12.7322495,41.725 C12.7322495,41.7004558 12.7422736,41.6769763 12.76,41.66 L13.27,40.51 C13.2897264,40.5053215 13.3102736,40.5053215 13.33,40.51 L13.4,40.51 L14.46,41 C14.7419004,41.1271673 15.0744064,41.0345707 15.25,40.78 C15.7171307,40.0993241 16.3113492,39.5152921 17,39.06 C17.2609834,38.8947993 17.3696663,38.5687506 17.26,38.28 L16.85,37.21 C16.8292306,37.1547945 16.8556999,37.0930329 16.91,37.07 L18.09,36.62 C18.1151747,36.610366 18.1431725,36.6113031 18.1676467,36.6225989 C18.1921208,36.6338946 18.2109984,36.6545923 18.22,36.68 L18.63,37.76 C18.7405108,38.051742 19.0427073,38.2238261 19.35,38.17 C20.1730965,38.0281843 21.0162133,38.0519819 21.83,38.24 C22.1299832,38.3034666 22.4347697,38.1551921 22.57,37.88 L23.04,36.82 C23.04,36.82 23.04,36.82 23.1,36.82 C23.16,36.82 23.1,36.82 23.18,36.82 L24.32,37.34 C24.3459508,37.3478445 24.3676045,37.3658892 24.38,37.39 C24.3891506,37.4158817 24.3891506,37.4441183 24.38,37.47 L23.91,38.47 C23.7828327,38.7519004 23.8754293,39.0844064 24.13,39.26 C24.8104917,39.748442 25.3909789,40.3628759 25.84,41.07 C26.0016471,41.3294219 26.3241775,41.4383282 26.61,41.33 L27.69,40.92 C27.7452055,40.8992306 27.8069671,40.9256999 27.83,40.98 L28.28,42.16 C28.289634,42.1851747 28.2886969,42.2131725 28.2774011,42.2376467 C28.2661054,42.2621208 28.2454077,42.2809984 28.22,42.29 L27.14,42.71 C26.8497821,42.816571 26.6772365,43.1153694 26.73,43.42 C26.8718199,44.2464437 26.8480259,45.092829 26.66,45.91 C26.5898782,46.2081258 26.7407924,46.5141463 27.02,46.64 L28.07,47.11 C28.0972195,47.1211708 28.1188292,47.1427805 28.13,47.17 C28.13,47.17 28.13,47.17 28.13,47.25 L27.62,48.39 C27.6121555,48.4159508 27.5941108,48.4376045 27.57,48.45 C27.5441183,48.4591506 27.5158817,48.4591506 27.49,48.45 L26.42,48 C26.1377948,47.8770075 25.8080124,47.9688456 25.63,48.22 C25.150597,48.9048143 24.5384831,49.4863226 23.83,49.93 C23.5668379,50.0885814 23.4535023,50.4117976 23.56,50.7 L24,51.75 C24.0207694,51.8052055 23.9943001,51.8669671 23.94,51.89 L22.76,52.34 C22.7047945,52.3607694 22.6430329,52.3343001 22.62,52.28 L22.21,51.2 C22.103429,50.9097821 21.8046306,50.7372365 21.5,50.79 C20.6693133,50.9249279 19.8203607,50.8977614 19,50.71 L19,50.71 Z" id="Shape" stroke="#02AEEE" stroke-width="0.4" fill="#02AEEE" fill-rule="nonzero"></path>
                                <path d="M24,43.11 C23.2217316,41.1531104 21.0095402,40.1916917 19.0478573,40.9577981 C17.0861744,41.7239044 16.1110424,43.9300854 16.8649572,45.896486 C17.618872,47.8628865 19.8189575,48.8516942 21.79,48.11 C22.7487776,47.7434276 23.5214752,47.0091636 23.9364447,46.0703186 C24.3514142,45.1314735 24.3742935,44.0657898 24,43.11 L24,43.11 Z M18,45.38 C17.5065503,44.0680976 18.1690549,42.6044459 19.4803751,42.1094512 C20.7916952,41.6144564 22.2561264,42.2752363 22.7526655,43.5859725 C23.2492047,44.8967086 22.5901503,46.3619171 21.28,46.86 C20.6488653,47.0999399 19.9481687,47.0787128 19.3327157,46.8010084 C18.7172627,46.523304 18.237708,46.0119787 18,45.38 L18,45.38 Z" id="Shape" stroke="#02AEEE" stroke-width="0.4" fill="#02AEEE" fill-rule="nonzero"></path>
                            </g>
                        </g>
                    </g>
                </g>
            </g>
        </g>
    </g>
</svg>