<?xml version="1.0" encoding="UTF-8"?>
<svg width="83px" height="70px" viewBox="0 0 83 70" version="1.1" xmlns="http://www.w3.org/2000/svg" xmlns:xlink="http://www.w3.org/1999/xlink">
    <title>6EA5BA68-F01E-4436-AB3C-4CE7D5591BFA</title>
    <g id="Soulotion" stroke="none" stroke-width="1" fill="none" fill-rule="evenodd">
        <g id="Solution-Page---English-CRM" transform="translate(-920.000000, -948.000000)">
            <g id="Soulotions" transform="translate(403.000000, 933.000000)">
                <g id="Omni-Channel" transform="translate(470.000000, 0.000000)">
                    <g id="Icon-/-Omni-Channel" transform="translate(38.000000, 0.000000)">
                        <g id="Asset-17" transform="translate(10.000000, 16.000000)">
                            <path d="M21.54,19.62 C22.797321,19.3959433 23.9994129,18.9307269 25.08,18.25 C26.4681943,19.2806177 28.2111355,19.7127519 29.92,19.45 C28.5445728,18.8844866 27.6047495,17.592713 27.49,16.11 C30.7552742,12.0723821 30.3418844,6.19706316 26.5434032,2.65645385 C22.7449221,-0.884155464 16.8550779,-0.884155464 13.0565968,2.65645385 C9.25811556,6.19706316 8.84472583,12.0723821 12.11,16.11 C12.29,16.34 12.49,16.56 12.69,16.77" id="Path" stroke="#666666" stroke-width="2" stroke-linecap="round" stroke-linejoin="round"></path>
                            <line x1="24.53" y1="11.77" x2="15.3" y2="11.77" id="Path" stroke="#02AEEE" stroke-width="2" stroke-linecap="round" stroke-linejoin="round"></line>
                            <line x1="24.53" y1="7.69" x2="15.3" y2="7.69" id="Path" stroke="#02AEEE" stroke-width="2" stroke-linecap="round" stroke-linejoin="round"></line>
                            <path d="M52.55,31 L52.55,39 C52.4951056,45.383985 47.304221,50.53 40.92,50.53 L40.92,50.53 C37.8355322,50.53 34.8773962,49.3046999 32.6963481,47.1236519 C30.5153001,44.9426038 29.29,41.9844678 29.29,38.9 L29.29,28.29 C29.3174927,23.8912607 32.8911748,20.34 37.29,20.34 L46.78,20.34 C46.8330433,20.34 46.8839141,20.3610714 46.9214214,20.3985786 C46.9589286,20.4360859 46.98,20.4869567 46.98,20.54 L46.98,24.86 C46.9850226,24.9627818 47.0672182,25.0449774 47.17,25.05 L49,25.05 C50.86,25.05 52.52,26.71 52.52,29.4 L52.55,31 Z" id="Path" stroke="#666666" stroke-width="2"></path>
                            <path d="M29.29,35.14 L32.58,31.91 C34.4794194,33.4273466 36.8389246,34.2526444 39.27,34.25 L42.57,34.25 C45.0642131,34.2534936 47.4808356,33.3830849 49.4,31.79 L52.55,35.14" id="Path" stroke="#666666" stroke-width="2" stroke-linejoin="round"></path>
                            <path d="M52.09,52 C55.2236004,51.9160043 57.8328234,54.3864865 57.92,57.52 L57.92,63.82 C57.8655145,65.7438104 56.2639217,67.2604025 54.34,67.21 L27.5,67.21 C25.5760783,67.2604025 23.9744855,65.7438104 23.92,63.82 L23.92,57.52 C24.0071766,54.3864865 26.6163996,51.9160043 29.75,52 L34.65,52 L38.23,55.58 L40.92,53.79 L43.6,55.58 L47.18,52 L52.09,52 Z" id="Path" stroke="#666666" stroke-width="2" stroke-linecap="round" stroke-linejoin="round"></path>
                            <line x1="34.65" y1="51.99" x2="34.65" y2="49.3" id="Path" stroke="#666666" stroke-width="2" stroke-linecap="round" stroke-linejoin="round"></line>
                            <line x1="47.18" y1="51.99" x2="47.18" y2="49.3" id="Path" stroke="#666666" stroke-width="2" stroke-linecap="round" stroke-linejoin="round"></line>
                            <circle id="Oval" fill="#666666" fill-rule="nonzero" cx="40.92" cy="59.15" r="1.34"></circle>
                            <circle id="Oval" fill="#666666" fill-rule="nonzero" cx="40.92" cy="63.17" r="1.34"></circle>
                            <path d="M58.08,28 C53.8687247,22.8021793 54.3498696,15.2428265 59.1861632,10.6208741 C64.0224567,5.99892175 71.5958452,5.86071245 76.5975574,10.3031278 C81.5992697,14.7455431 82.3559087,22.2823072 78.3370879,27.6303216 C74.3182671,32.9783361 66.8685426,34.3483434 61.21,30.78 C59.4063998,32.1204098 57.1409276,32.6822757 54.92,32.34 C56.7051662,31.602049 57.9258638,29.9255212 58.08,28 Z" id="Path" stroke="#666666" stroke-width="1.84" stroke-linecap="round" stroke-linejoin="round"></path>
                            <line x1="61.92" y1="23.77" x2="73.92" y2="23.77" id="Path" stroke="#02AEEE" stroke-width="2" stroke-linecap="round" stroke-linejoin="round"></line>
                            <line x1="61.92" y1="19.77" x2="73.92" y2="19.77" id="Path" stroke="#02AEEE" stroke-width="2" stroke-linecap="round" stroke-linejoin="round"></line>
                            <line x1="61.92" y1="15.77" x2="73.92" y2="15.77" id="Path" stroke="#02AEEE" stroke-width="2" stroke-linecap="round" stroke-linejoin="round"></line>
                            <path d="M23.76,38 C27.9982624,32.789456 27.5291598,25.1986468 22.6815865,20.5495962 C17.8340132,15.9005457 10.2302313,15.7490792 5.2013599,20.2013921 C0.172488494,24.653705 -0.598538213,32.2198109 3.42885751,37.595006 C7.45625324,42.970201 14.9342855,44.3556521 20.62,40.78 C22.42716,42.1209827 24.6959111,42.6827687 26.92,42.34 C25.1303686,41.6077337 23.907355,39.9280251 23.76,38 Z" id="Path" stroke="#666666" stroke-width="1.84" stroke-linecap="round" stroke-linejoin="round"></path>
                            <line x1="19.92" y1="33.77" x2="7.92" y2="33.77" id="Path" stroke="#02AEEE" stroke-width="2" stroke-linecap="round" stroke-linejoin="round"></line>
                            <line x1="19.92" y1="29.77" x2="7.92" y2="29.77" id="Path" stroke="#02AEEE" stroke-width="2" stroke-linecap="round" stroke-linejoin="round"></line>
                            <line x1="19.92" y1="25.77" x2="7.92" y2="25.77" id="Path" stroke="#02AEEE" stroke-width="2" stroke-linecap="round" stroke-linejoin="round"></line>
                        </g>
                    </g>
                </g>
            </g>
        </g>
    </g>
</svg>