<?xml version="1.0" encoding="UTF-8"?>
<svg width="90px" height="78px" viewBox="0 0 90 78" version="1.1" xmlns="http://www.w3.org/2000/svg" xmlns:xlink="http://www.w3.org/1999/xlink">
    <title>9533FC28-24C6-44E2-86F4-FFC9292567A5</title>
    <g id="Soulotion" stroke="none" stroke-width="1" fill="none" fill-rule="evenodd">
        <g id="Solution-Page---English-CRM" transform="translate(-916.000000, -674.000000)" stroke-width="2">
            <g id="Platforms" transform="translate(638.000000, 663.000000)">
                <g id="PEGA" transform="translate(235.000000, 0.000000)">
                    <g id="Icon-/-PEGA" transform="translate(38.000000, 0.000000)">
                        <g id="Asset-3" transform="translate(6.000000, 12.000000)">
                            <line x1="6.29" y1="38.76" x2="16.77" y2="41.11" id="Path" stroke="#666666" stroke-linecap="round" stroke-linejoin="round"></line>
                            <line x1="6.07" y1="49.55" x2="16.76" y2="48.58" id="Path" stroke="#666666" stroke-linecap="round" stroke-linejoin="round"></line>
                            <line x1="7.8" y1="60.17" x2="17.92" y2="56.58" id="Path" stroke="#666666" stroke-linecap="round" stroke-linejoin="round"></line>
                            <path d="M25.85,62.67 C15.05,46.62 24.22,31.48 22.39,30.93 C20.56,30.38 12.27,35.75 15.48,29.64 C18.69,23.53 25.54,15.41 37.25,9.15 C48.96,2.89 61.51,5 61.51,5 C64.65,0.76 74.39,-2 72.75,1.88 C71.11,5.76 71.1,7.74 73.58,11.14 C76.06,14.54 83.64,32.77 83.64,32.77 L85.64,35.77 C88.2,39.5 87.26,45.37 84.72,46.77 C75.23,52 74.31,42.46 74.31,42.46 C66.45,41.53 58.15,33.6 58.15,33.6 C47.54,39.19 55.9,53.94 60.48,60 C63.9279172,64.4288856 64.8780667,70.3107631 63,75.6 C63,75.6 36.65,78.71 25.85,62.67 Z" id="Path" stroke="#666666"></path>
                            <circle id="Oval" stroke="#36AAA7" stroke-linecap="round" cx="65.42" cy="19.73" r="4.27"></circle>
                            <path d="M25.72,49.16 C25.72,49.16 38.31,45.39 43.93,53.16 C47.2486819,57.8388708 48.3691341,63.7294567 47,69.3" id="Path" stroke="#36AAA7" stroke-linecap="round"></path>
                            <circle id="Oval" stroke="#36AAA7" stroke-linecap="round" cx="3.32" cy="37.62" r="2.89"></circle>
                            <circle id="Oval" stroke="#36AAA7" stroke-linecap="round" cx="2.89" cy="49.37" r="2.89"></circle>
                            <circle id="Oval" stroke="#36AAA7" stroke-linecap="round" cx="4.67" cy="60.78" r="2.89"></circle>
                        </g>
                    </g>
                </g>
            </g>
        </g>
    </g>
</svg>