<?xml version="1.0" encoding="UTF-8"?>
<svg width="82px" height="69px" viewBox="0 0 82 69" version="1.1" xmlns="http://www.w3.org/2000/svg" xmlns:xlink="http://www.w3.org/1999/xlink">
    <title>91C8E798-F4C9-43D8-AF4A-E63DE60A875E</title>
    <g id="Soulotion" stroke="none" stroke-width="1" fill="none" fill-rule="evenodd" stroke-linecap="round" stroke-linejoin="round">
        <g id="Solution-Page---English-CRM" transform="translate(-685.000000, -678.000000)" stroke-width="2">
            <g id="Platforms" transform="translate(638.000000, 663.000000)">
                <g id="Icon-/-Sales-Force-Automation" transform="translate(38.000000, 0.000000)">
                    <g id="Asset-21" transform="translate(10.000000, 16.000000)">
                        <path d="M36.89,28.47 C36.3727274,25.9601137 34.1626353,24.1594527 31.6,24.1599999 L31.6,24.1599999 C28.6176624,24.1599999 26.2,26.5776624 26.2,29.56 L26.2,30.48 C23.3226514,31.4972962 21.3992477,34.2181111 21.3999998,37.27 L21.3999998,37.27 C21.3999998,39.1795587 22.1585693,41.0109069 23.5088312,42.3611688 C24.8590931,43.7114307 26.6904413,44.47 28.6,44.47 L51.3999998,44.47 C53.3095587,44.47 55.1409069,43.7114307 56.4911688,42.3611688 C57.8414307,41.0109069 58.6,39.1795587 58.6,37.27 L58.6,37.27 C58.6,33.2935498 55.3764502,30.07 51.3999998,30.07 L49.3999998,30.07" id="Path" stroke="#666666"></path>
                        <path d="M53.37,30.07 C53.0181315,25.6840165 49.9441716,21.9940902 45.6938974,20.8557442 C41.4436231,19.7173981 36.9369052,21.3770003 34.44,25" id="Path" stroke="#666666"></path>
                        <circle id="Oval" stroke="#7968AD" cx="20.33" cy="4" r="4"></circle>
                        <line x1="31.24" y1="19.56" x2="23.2" y2="8.09" id="Path" stroke="#7968AD"></line>
                        <circle id="Oval" stroke="#666666" cx="61.67" cy="62.95" r="4"></circle>
                        <line x1="51.76" y1="49.39" x2="58.8" y2="58.85" id="Path" stroke="#666666"></line>
                        <circle id="Oval" stroke="#666666" cx="65.72" cy="4.83" r="4"></circle>
                        <line x1="54.2" y1="19.95" x2="62.69" y2="8.81" id="Path" stroke="#666666"></line>
                        <circle id="Oval" stroke="#7968AD" cx="22.09" cy="62.11" r="4"></circle>
                        <line x1="30.6" y1="50" x2="25.12" y2="58.14" id="Path" stroke="#7968AD"></line>
                        <circle id="Oval" stroke="#7968AD" cx="76" cy="33.47" r="4"></circle>
                        <line x1="63" y1="33.47" x2="71" y2="33.47" id="Path" stroke="#7968AD"></line>
                        <circle id="Oval" stroke="#666666" cx="4" cy="33.47" r="4"></circle>
                        <line x1="16" y1="33.47" x2="9" y2="33.47" id="Path" stroke="#666666"></line>
                    </g>
                </g>
            </g>
        </g>
    </g>
</svg>