<?xml version="1.0" encoding="UTF-8"?>
<svg width="41px" height="41px" viewBox="0 0 41 41" version="1.1" xmlns="http://www.w3.org/2000/svg" xmlns:xlink="http://www.w3.org/1999/xlink">
    <g id="Article" stroke="none" stroke-width="1" fill="none" fill-rule="evenodd">
        <g id="Articles-Page_share-open---English-" transform="translate(-1312.000000, -389.000000)" fill-rule="nonzero">
            <g id="social-logos-2" transform="translate(1266.000000, 378.000000)">
                <g id="icon-social/instagram" transform="translate(52.000000, 15.000000)">
                    <g id="Group-9">
                        <path d="M17.1947776,14.4323379 C17.1947776,15.9580221 15.9580221,17.1947776 14.4323379,17.1947776 C12.9066538,17.1947776 11.6698982,15.9580221 11.6698982,14.4323379 C11.6698982,12.9066538 12.9066538,11.6698982 14.4323379,11.6698982 C15.9580221,11.6698982 17.1947776,12.9066538 17.1947776,14.4323379 Z" id="Path" fill="#ffffff"></path>
                        <path d="M20.8927118,9.54477527 C20.7599192,9.18493576 20.5480676,8.85923037 20.2727925,8.59188331 C20.0054455,8.31660829 19.6799603,8.10475667 19.3199006,7.971964 C19.0278889,7.85855069 18.5892106,7.72355584 17.7812235,7.68677909 C16.9071703,7.64691928 16.6451085,7.63833069 14.4323379,7.63833069 C12.2193472,7.63833069 11.9572853,7.64669907 11.0834524,7.68655888 C10.2754652,7.72355584 9.83656675,7.85855069 9.54477527,7.971964 C9.18471555,8.10475667 8.85901016,8.31660829 8.59188331,8.59188331 C8.31660829,8.85923037 8.10475667,9.18471555 7.97174379,9.54477527 C7.85833048,9.83678696 7.72333563,10.2756854 7.68655888,11.0836726 C7.64669907,11.9575055 7.63811048,12.2195674 7.63811048,14.4325581 C7.63811048,16.6453287 7.64669907,16.9073905 7.68655888,17.7814437 C7.72333563,18.5894308 7.85833048,19.0281091 7.97174379,19.3201208 C8.10475667,19.6801805 8.31638808,20.0056657 8.59166311,20.2730127 C8.85901016,20.5482878 9.18449529,20.7601394 9.54455501,20.892932 C9.83656675,21.0065656 10.2754652,21.1415604 11.0834524,21.1783372 C11.9572853,21.218197 12.2191269,21.2265654 14.4321177,21.2265654 C16.6453287,21.2265654 16.9073905,21.218197 17.7810033,21.1783372 C18.5889904,21.1415604 19.0278889,21.0065656 19.3199006,20.892932 C20.0426626,20.6141336 20.6139133,20.0428828 20.8927118,19.3201208 C21.0061252,19.0281091 21.14112,18.5894308 21.178117,17.7814437 C21.2179768,16.9073905 21.2263452,16.6453287 21.2263452,14.4325581 C21.2263452,12.2195674 21.2179768,11.9575055 21.178117,11.0836726 C21.1413402,10.2756854 21.0063454,9.83678696 20.8927118,9.54477527 L20.8927118,9.54477527 Z M14.4323379,18.6878692 C12.0819299,18.6878692 10.1765864,16.782746 10.1765864,14.4323379 C10.1765864,12.0819299 12.0819299,10.1768066 14.4323379,10.1768066 C16.7825258,10.1768066 18.6878692,12.0819299 18.6878692,14.4323379 C18.6878692,16.782746 16.7825258,18.6878692 14.4323379,18.6878692 Z M18.8561173,11.0030721 C18.3068886,11.0030721 17.8616038,10.5577873 17.8616038,10.0085586 C17.8616038,9.45932985 18.3068886,9.01404504 18.8561173,9.01404504 C19.405346,9.01404504 19.8506308,9.45932985 19.8506308,10.0085586 C19.8504106,10.5577873 19.405346,11.0030721 18.8561173,11.0030721 Z" id="Shape" fill="#ffffff"></path>
                        <path d="M14.4323379,-5.30899769e-14 C6.46279635,-5.30899769e-14 2.98700975e-12,6.46279635 2.98700975e-12,14.4323379 C2.98700975e-12,22.4018795 6.46279635,28.8646758 14.4323379,28.8646758 C22.4018795,28.8646758 28.8646758,22.4018795 28.8646758,14.4323379 C28.8646758,6.46279635 22.4018795,-5.30899769e-14 14.4323379,-5.30899769e-14 Z M22.669667,17.8490512 C22.629587,18.7312525 22.4893068,19.3335542 22.2845022,19.8607609 C21.8539721,20.973973 20.973973,21.8539721 19.8607609,22.2845022 C19.3337744,22.4893068 18.7312525,22.6293668 17.8492714,22.669667 C16.9655286,22.7099673 16.6832065,22.719657 14.4325581,22.719657 C12.1816895,22.719657 11.8995877,22.7099673 11.0156246,22.669667 C10.1336435,22.6293668 9.5311216,22.4893068 9.00413515,22.2845022 C8.45094251,22.0763944 7.95016221,21.7502485 7.53614861,21.3285272 C7.11464755,20.9147338 6.78850169,20.4137333 6.58039381,19.8607609 C6.37558923,19.3337744 6.23530905,18.7312525 6.19522904,17.8492714 C6.15448835,16.9653084 6.14501888,16.6829863 6.14501888,14.4323379 C6.14501888,12.1816895 6.15448835,11.8993675 6.19500883,11.0156246 C6.23508885,10.1334233 6.37514877,9.5311216 6.57995339,9.00391495 C6.78806128,8.45094251 7.11442729,7.949942 7.53614861,7.53614861 C7.949942,7.11442729 8.45094251,6.78828149 9.00391495,6.5801736 C9.5311216,6.37536903 10.1334233,6.23530905 11.0156246,6.19500883 C11.8993675,6.15470856 12.1816895,6.14501888 14.4323379,6.14501888 C16.6829863,6.14501888 16.9653084,6.15470856 17.8490512,6.19522904 C18.7312525,6.23530905 19.3335542,6.37536903 19.8607609,6.57995339 C20.4137333,6.78806128 20.9147338,7.11442729 21.3287474,7.53614861 C21.7502485,7.95016221 22.0766146,8.45094251 22.2845022,9.00391495 C22.4895271,9.5311216 22.629587,10.1334233 22.6698873,11.0156246 C22.7101875,11.8993675 22.719657,12.1816895 22.719657,14.4323379 C22.719657,16.6829863 22.7101875,16.9653084 22.669667,17.8490512 L22.669667,17.8490512 Z" id="Shape" fill="#3CADEF"></path>
                    </g>
                </g>
            </g>
        </g>
    </g>
</svg>