<?xml version="1.0" encoding="UTF-8"?>
<svg width="43px" height="43px" viewBox="0 0 43 43" version="1.1" xmlns="http://www.w3.org/2000/svg" xmlns:xlink="http://www.w3.org/1999/xlink">
    <g id="Article" stroke="none" stroke-width="1" fill="none" fill-rule="evenodd">
        <g id="Articles-Page_share-open---English-" transform="translate(-1390.000000, -387.000000)">
            <g id="social-logos-2" transform="translate(1266.000000, 378.000000)">
                <g id="icon-social/linkdin" transform="translate(130.000000, 13.000000)">
                    <g id="Group" transform="translate(8.000000, 7.000000)" fill="#3CADEF">
                        <polygon id="Path" points="3.59818726 15.1488281 0.200727095 15.1488281 0.200727095 4.92749861 3.59818726 4.92749861"></polygon>
                        <path d="M1.8995636,3.5317749 L1.87742615,3.5317749 C0.737347412,3.5317749 7.99360578e-16,2.74695967 7.99360578e-16,1.7661003 C7.99360578e-16,0.763103471 0.759910611,0 1.92212674,0 C3.08434298,0 3.79955294,0.763103471 3.8216904,1.7661003 C3.8216904,2.74695967 3.08434298,3.5317749 1.8995636,3.5317749 Z" id="Path"></path>
                        <path d="M15.8487122,15.1488281 L12.4516777,15.1488281 L12.4516777,9.68066484 C12.4516777,8.30643999 11.959758,7.36921692 10.7304909,7.36921692 C9.79199069,7.36921692 9.23302002,8.00141147 8.98737943,8.61168135 C8.89755249,8.83007585 8.87562789,9.13531722 8.87562789,9.44077148 L8.87562789,15.1488281 L5.47838057,15.1488281 C5.47838057,15.1488281 5.52286837,5.88643344 5.47838057,4.92749861 L8.87562789,4.92749861 L8.87562789,6.3747345 C9.32710421,5.67825623 10.1349083,4.68760531 11.9374077,4.68760531 C14.1726516,4.68760531 15.8487122,6.14846419 15.8487122,9.2879379 L15.8487122,15.1488281 Z" id="Path"></path>
                    </g>
                </g>
            </g>
        </g>
    </g>
</svg>