<?xml version="1.0" encoding="UTF-8"?>
<svg width="41px" height="41px" viewBox="0 0 41 41" version="1.1" xmlns="http://www.w3.org/2000/svg" xmlns:xlink="http://www.w3.org/1999/xlink">
    <g id="Article" stroke="none" stroke-width="1" fill="none" fill-rule="evenodd">
        <g id="Articles-Page_share-open---English-" transform="translate(-1351.000000, -389.000000)" fill-rule="nonzero">
            <g id="social-logos-2" transform="translate(1266.000000, 378.000000)">
                <g id="icon-social/mail/hover" transform="translate(91.000000, 15.000000)">
                    <g id="icon-social/mail" transform="translate(-0.000000, -0.000000)">
                        <path d="M7,9.96422534 L14.2327683,15.9229769 C14.4321713,16.0862603 14.7190669,16.0862603 14.9184699,15.9229769 L14.9184699,15.9229769 L22.1539654,10.044329 L22.1539654,19.2914866 C22.1539654,19.5904009 21.9116564,19.8327099 21.6127421,19.8327099 L21.6127421,19.8327099 L7.54122324,19.8327099 C7.24230895,19.8327099 7,19.5904009 7,19.2914866 L7,19.2914866 L7,9.96422534 Z M21.6127421,9.00846702 C21.6396654,9.0116699 21.6662715,9.0170926 21.6923067,9.0247034 L21.6923067,9.0247034 L14.5769985,14.8037765 L7.54122324,9.00846702 Z" id="Combined-Shape" fill="#3CADEF"></path>
                    </g>
                </g>
            </g>
        </g>
    </g>
</svg>