<?xml version="1.0" encoding="UTF-8"?>
<svg width="41px" height="41px" viewBox="0 0 41 41" version="1.1" xmlns="http://www.w3.org/2000/svg" xmlns:xlink="http://www.w3.org/1999/xlink">
    <g id="Article" stroke="none" stroke-width="1" fill="none" fill-rule="evenodd">
        <g id="M_Articles-Page_share-open---English-" transform="translate(-310.000000, -327.000000)" fill-rule="nonzero">
            <g id="social-logos-mobile" transform="translate(129.000000, 316.000000)">
                <g id="icon-social/whatsaap" transform="translate(187.000000, 15.000000)">
                    <path d="M20.768179,8.35227672 C19.25387,6.83618943 17.2399615,6.00088914 15.0944599,6 C10.6734442,6 7.07537956,9.59796583 7.07360126,14.020167 C7.07300851,15.4338053 7.44229915,16.813755 8.14422803,18.0301024 L7.00632279,22.1863511 L11.2583026,21.0709708 C12.4298964,21.7100669 13.7488904,22.0468545 15.0911997,22.0472496 L15.0945587,22.0472496 C19.5150804,22.0472496 23.1135402,18.4489874 23.1152204,14.0265886 C23.1161088,11.8833593 22.2825868,9.86826525 20.768179,8.35227672 Z M15.0944599,20.69269 L15.0916936,20.69269 C13.8955002,20.692196 12.7223256,20.3707215 11.6986258,19.7634369 L11.4552971,19.6189018 L8.93210735,20.2808192 L9.60558366,17.8207586 L9.44701983,17.5685384 C8.77966877,16.5070995 8.42727182,15.28028 8.42786383,14.020661 C8.4292477,10.3450434 11.419929,7.35465849 15.0971273,7.35465849 C16.877784,7.35525126 18.5516448,8.04957299 19.8102758,9.30968596 C21.0689069,10.5697989 21.7616479,12.2447464 21.7610555,14.0260947 C21.7594745,17.7020087 18.7689908,20.69269 15.0944599,20.69269 L15.0944599,20.69269 Z M18.7512079,15.6997579 C18.5508544,15.5993835 17.5654866,15.1147019 17.3817304,15.0477198 C17.1981718,14.9808365 17.0644052,14.947543 16.930935,15.1480941 C16.7972672,15.3486452 16.4132562,15.8001322 16.2962846,15.9338 C16.1793129,16.0675666 16.0625388,16.0843615 15.8620865,15.9839872 C15.6616342,15.8837116 15.0159189,15.6719968 14.2503669,14.9892339 C13.6546413,14.4578229 13.2524523,13.8015367 13.1354806,13.6009856 C13.0187065,13.4002369 13.1344927,13.3022336 13.223407,13.1919799 C13.4403579,12.9225696 13.6576051,12.6401186 13.7243896,12.5064508 C13.7912729,12.3726842 13.7577818,12.2556137 13.7075947,12.1553382 C13.6576051,12.0550626 13.2567992,11.068608 13.089838,10.6672095 C12.927026,10.2765794 12.7619419,10.3293352 12.638845,10.32321 C12.5220709,10.3173812 12.3884031,10.3161956 12.2547353,10.3161956 C12.1211663,10.3161956 11.9040178,10.366284 11.7202617,10.5670327 C11.5366043,10.7676826 11.0189256,11.252463 11.0189256,12.2389176 C11.0189256,13.2253722 11.7370566,14.1783357 11.8372333,14.3121023 C11.9374101,14.4458689 13.2504765,16.4701507 15.2608284,17.3381517 C15.7389896,17.544828 16.112232,17.6680237 16.4033769,17.7603957 C16.883514,17.9129331 17.3202807,17.8913961 17.6656633,17.8398258 C18.050761,17.7822291 18.8512859,17.3549466 19.0184447,16.8868623 C19.185406,16.4186792 19.185406,16.0174782 19.1352188,15.9338 C19.0852292,15.8502206 18.9515614,15.8001322 18.7512079,15.6997579 L18.7512079,15.6997579 Z" id="Shape" fill="#ffffff"></path>
                </g>
            </g>
        </g>
    </g>
</svg>