<?xml version="1.0" encoding="UTF-8"?>
<svg viewBox="0 0 14 14" version="1.1" xmlns="http://www.w3.org/2000/svg" xmlns:xlink="http://www.w3.org/1999/xlink">
    <title>1165858C-7496-43A0-BA92-FF9C3DFC2032</title>
    <g id="Article" stroke="none" stroke-width="1" fill="none" fill-rule="evenodd">
        <g id="Articles-Lobi---English-/-Search-Type-0.4" transform="translate(-1388.000000, -472.000000)" fill="#686868" fill-rule="nonzero">
            <g id="Component-/-Search-Tab" transform="translate(483.000000, 443.000000)">
                <g id="Icon/search" transform="translate(898.000000, 22.000000)">
                    <path d="M19.8282097,7.20339167 C20.1225851,6.98657046 20.5391611,7.01224074 20.8044902,7.27944147 C21.0963523,7.57336226 21.0946833,8.04823306 20.8007625,8.34009509 L20.8007625,8.34009509 L15.0946029,14.0059044 L20.8007625,19.6719683 C21.0946833,19.9638304 21.0963523,20.4387012 20.8044902,20.732622 C20.5391611,20.9998227 20.1225851,21.025493 19.8282097,20.8086717 L19.7438366,20.7363497 L14.0306029,15.0629044 L8.31706589,20.7363497 L8.23269275,20.8086717 C7.93831742,21.025493 7.52174138,20.9998227 7.25641227,20.732622 C6.96455024,20.4387012 6.9662192,19.9638304 7.26013999,19.6719683 L7.26013999,19.6719683 L12.9656029,14.0059044 L7.26013999,8.34009509 C6.9662192,8.04823306 6.96455024,7.57336226 7.25641227,7.27944147 C7.52174138,7.01224074 7.93831742,6.98657046 8.23269275,7.20339167 L8.31706589,7.27571374 L14.0306029,12.9489044 L19.7438366,7.27571374 Z" id="Icon/close"></path>
                </g>
            </g>
        </g>
    </g>
</svg>