<?xml version="1.0" encoding="UTF-8"?>
<svg viewBox="0 0 29 30" version="1.1" xmlns="http://www.w3.org/2000/svg" xmlns:xlink="http://www.w3.org/1999/xlink">
    <title>36CE6D3C-F4A2-45DD-8130-E300978E9249</title>
    <g id="Article" stroke="none" stroke-width="1" fill="none" fill-rule="evenodd">
        <g id="Articles-Lobi---English-0.2" transform="translate(-1381.000000, -465.000000)" fill="#686868" fill-rule="nonzero">
            <g id="Component-/-Search-Tab" transform="translate(483.000000, 443.000000)">
                <g id="Combined-Shape" transform="translate(898.000000, 22.000000)">
                    <path d="M10.164,2.13162821e-14 C15.7774222,2.13162821e-14 20.328,4.5505778 20.328,10.164 C20.328,12.7053929 19.3952725,15.0289357 17.8534676,16.8109783 C17.8615181,16.8146183 17.8688983,16.8199984 17.8761999,16.8255297 L17.9595902,16.8989828 L28.7560043,27.9128187 C29.0459633,28.208617 29.0412296,28.6834671 28.7454313,28.9734262 C28.4765238,29.2370253 28.0596395,29.2570767 27.7682142,29.0363062 L27.6848238,28.9628532 L16.8884098,17.9490172 C16.8588981,17.9189113 16.8324392,17.8869506 16.8090291,17.8535188 C15.0280584,19.3956247 12.7049132,20.328 10.164,20.328 C4.5505778,20.328 -3.55271368e-14,15.7774222 -3.55271368e-14,10.164 C-3.55271368e-14,4.5505778 4.5505778,2.13162821e-14 10.164,2.13162821e-14 Z M10.164,1.5 C5.37900493,1.5 1.5,5.37900493 1.5,10.164 C1.5,14.9489951 5.37900493,18.828 10.164,18.828 C14.9489951,18.828 18.828,14.9489951 18.828,10.164 C18.828,5.37900493 14.9489951,1.5 10.164,1.5 Z"></path>
                </g>
            </g>
        </g>
    </g>
</svg>