<?xml version="1.0" encoding="UTF-8"?>
<svg width="18px" height="18px" viewBox="0 0 18 18" version="1.1" xmlns="http://www.w3.org/2000/svg" xmlns:xlink="http://www.w3.org/1999/xlink">
    <title>47E9EBB7-96D7-4E38-9D3F-237E10C9C5E2</title>
    <g id="Article" stroke="none" stroke-width="1" fill="none" fill-rule="evenodd">
        <g id="Articles-Page---English-0.0" transform="translate(-1266.000000, -350.000000)" fill="#686868" fill-rule="nonzero">
            <g id="share" transform="translate(1266.000000, 349.000000)">
                <g id="Group" transform="translate(0.000000, 1.000000)">
                    <path d="M9.99724518,-1.24362326e-14 C10.3654118,-1.24362326e-14 10.6639118,0.2985 10.6639118,0.666666667 C10.6639118,1.03483333 10.3654118,1.33333333 9.99724518,1.33333333 L9.99724518,1.33333333 L2,1.33333333 C1.6325,1.33333333 1.33333333,1.63233333 1.33333333,2 L1.33333333,2 L1.33333333,16 C1.33333333,16.3676667 1.6325,16.6666667 2,16.6666667 L2,16.6666667 L16,16.6666667 C16.3675,16.6666667 16.6666667,16.3676667 16.6666667,16 L16.6666667,16 L16.6666667,8.08575703 C16.6666667,7.71759036 16.9651667,7.41909036 17.3333333,7.41909036 C17.7015,7.41909036 18,7.71759036 18,8.08575703 L18,8.08575703 L18,16 C18,17.1028667 17.1028667,18 16,18 L16,18 L2,18 C0.897133333,18 0,17.1028667 0,16 L0,16 L0,2 C0,0.897133333 0.897133333,-1.24362326e-14 2,-1.24362326e-14 L2,-1.24362326e-14 Z M17.0316848,-0.00407714844 C17.5260586,-0.00407714844 17.9335137,0.368065595 17.9891993,0.847500087 L17.9956848,0.959922852 L17.9956848,5.10949707 C17.9956848,5.4960964 17.6822841,5.80949707 17.2956848,5.80949707 C16.9413021,5.80949707 16.6484266,5.54615345 16.602075,5.20448292 L16.5956848,5.10949707 L16.5949904,2.52492285 L10.5268037,9.46095323 C10.2722262,9.75189887 9.82999242,9.78138112 9.53904677,9.52680369 C9.2771957,9.29768399 9.22712996,8.91656262 9.40532228,8.63053017 L9.47319631,8.53904677 L15.7239904,1.39492285 L12.9708557,1.39592285 C12.616473,1.39592285 12.3235975,1.13257923 12.2772459,0.790908705 L12.2708557,0.695922852 C12.2708557,0.341540137 12.5341993,0.0486646214 12.8758699,0.00231302649 L12.9708557,-0.00407714844 L17.0316848,-0.00407714844 Z" id="Combined-Shape"></path>
                </g>
            </g>
        </g>
    </g>
</svg>